<?xml version="1.0" encoding="UTF-8" standalone="no"?>
<svg
   width="6.7443051mm"
   height="12.49313mm"
   viewBox="0 0 6.7443051 12.49313"
   version="1.1"
   id="svg934"
   xmlns="http://www.w3.org/2000/svg"
   xmlns:svg="http://www.w3.org/2000/svg"
   xmlns:rdf="http://www.w3.org/1999/02/22-rdf-syntax-ns#"
   xmlns:cc="http://creativecommons.org/ns#"
   xmlns:dc="http://purl.org/dc/elements/1.1/">
  <defs
     id="defs928" />
  <metadata
     id="metadata931">
    <rdf:RDF>
      <cc:Work
         rdf:about="">
        <dc:format>image/svg+xml</dc:format>
        <dc:type
           rdf:resource="http://purl.org/dc/dcmitype/StillImage" />
      </cc:Work>
    </rdf:RDF>
  </metadata>
  <g
     id="layer1"
     transform="translate(-62.395702,-108.56898)">
    <path
       style="display:inline;opacity:1;fill:#12d346;fill-opacity:1;stroke:none;stroke-width:0.26210052;stroke-linecap:round;stroke-miterlimit:4;stroke-dasharray:none;stroke-opacity:0.98492462"
       d="m 64.626525,108.56898 0.317855,1.16961 1.769322,0.0374 0.398359,-1.15875 z m -0.543602,0.22206 -1.43782,1.50997 0.765053,0.84037 1.000872,-1.1435 z m 3.584141,0.0677 -0.418126,1.21763 0.854466,1.07259 0.822444,-0.83899 z m -2.732148,1.90558 -1.032219,1.30001 -0.01267,5.83425 0.917532,1.0624 1.839161,0.004 0.921624,-1.05841 0.01267,-5.83425 -0.91657,-1.26807 z m 4.205091,0.15951 -0.869058,0.88592 -0.01381,6.36394 0.865198,0.89019 z m -6.726705,-0.0115 -0.0176,8.09561 0.817909,-0.89016 0.01371,-6.31175 z m 0.974045,7.87762 -0.780614,0.84942 1.255692,1.21247 0.374094,-1.16965 z m 4.679259,0.0241 -0.844243,0.87977 0.426903,1.1652 1.24593,-1.19258 z m -3.296806,1.11474 -0.36108,1.12732 2.694401,0.006 -0.413544,-1.12899 z"
       id="path6161-3-4-8-3-3-1-9-1" />
  </g>
</svg>
