<?xml version="1.0" encoding="UTF-8"?>
<svg width="350px" height="350px" viewBox="0 0 350 350" version="1.1" xmlns="http://www.w3.org/2000/svg" xmlns:xlink="http://www.w3.org/1999/xlink">
    <!-- Generator: Sketch 58 (84663) - https://sketch.com -->
    <title>transparent</title>
    <desc>Created with Sketch.</desc>
    <g id="transparent" stroke="none" stroke-width="1" fill="none" fill-rule="evenodd">
        <path d="M101,249 L108.620596,249 L108.620596,241.379404 L101,241.379404 L101,249 Z M101,238.9729 L108.620596,238.9729 L108.620596,231.352304 L101,231.352304 L101,238.9729 Z M101,228.945799 L108.620596,228.945799 L108.620596,221.325203 L101,221.325203 L101,228.945799 Z M101,218.918699 L108.620596,218.918699 L108.620596,211.298103 L101,211.298103 L101,218.918699 Z M101,208.891599 L108.620596,208.891599 L108.620596,201.271003 L101,201.271003 L101,208.891599 Z M101,198.864499 L108.620596,198.864499 L108.620596,191.243902 L101,191.243902 L101,198.864499 Z M101,188.837398 L108.620596,188.837398 L108.620596,181.216802 L101,181.216802 L101,188.837398 Z M101,178.810298 L108.620596,178.810298 L108.620596,171.189702 L101,171.189702 L101,178.810298 Z M101,168.783198 L108.620596,168.783198 L108.620596,161.162602 L101,161.162602 L101,168.783198 Z M101,158.756098 L108.620596,158.756098 L108.620596,151.135501 L101,151.135501 L101,158.756098 Z M101,148.728997 L108.620596,148.728997 L108.620596,141.108401 L101,141.108401 L101,148.728997 Z M101,138.701897 L108.620596,138.701897 L108.620596,131.081301 L101,131.081301 L101,138.701897 Z M111.0271,249 L118.647696,249 L118.647696,241.379404 L111.0271,241.379404 L111.0271,249 Z M111.0271,238.9729 L118.647696,238.9729 L118.647696,231.352304 L111.0271,231.352304 L111.0271,238.9729 Z M111.0271,228.945799 L118.647696,228.945799 L118.647696,221.325203 L111.0271,221.325203 L111.0271,228.945799 Z M111.0271,218.918699 L118.647696,218.918699 L118.647696,211.298103 L111.0271,211.298103 L111.0271,218.918699 Z M111.0271,208.891599 L118.647696,208.891599 L118.647696,201.271003 L111.0271,201.271003 L111.0271,208.891599 Z M111.0271,198.864499 L118.647696,198.864499 L118.647696,191.243902 L111.0271,191.243902 L111.0271,198.864499 Z M111.0271,188.837398 L118.647696,188.837398 L118.647696,181.216802 L111.0271,181.216802 L111.0271,188.837398 Z M111.0271,178.810298 L118.647696,178.810298 L118.647696,171.189702 L111.0271,171.189702 L111.0271,178.810298 Z M111.0271,168.783198 L118.647696,168.783198 L118.647696,161.162602 L111.0271,161.162602 L111.0271,168.783198 Z M111.0271,158.756098 L118.647696,158.756098 L118.647696,151.135501 L111.0271,151.135501 L111.0271,158.756098 Z M111.0271,148.728997 L118.647696,148.728997 L118.647696,141.108401 L111.0271,141.108401 L111.0271,148.728997 Z M111.0271,138.701897 L118.647696,138.701897 L118.647696,131.081301 L111.0271,131.081301 L111.0271,138.701897 Z M111.0271,128.674797 L118.647696,128.674797 L118.647696,121.054201 L111.0271,121.054201 L111.0271,128.674797 Z M121.054201,249 L128.674797,249 L128.674797,241.379404 L121.054201,241.379404 L121.054201,249 Z M121.054201,238.9729 L128.674797,238.9729 L128.674797,231.352304 L121.054201,231.352304 L121.054201,238.9729 Z M121.054201,228.945799 L128.674797,228.945799 L128.674797,221.325203 L121.054201,221.325203 L121.054201,228.945799 Z M121.054201,218.918699 L128.674797,218.918699 L128.674797,211.298103 L121.054201,211.298103 L121.054201,218.918699 Z M121.054201,208.891599 L128.674797,208.891599 L128.674797,201.271003 L121.054201,201.271003 L121.054201,208.891599 Z M121.054201,198.864499 L128.674797,198.864499 L128.674797,191.243902 L121.054201,191.243902 L121.054201,198.864499 Z M121.054201,188.837398 L128.674797,188.837398 L128.674797,181.216802 L121.054201,181.216802 L121.054201,188.837398 Z M121.054201,178.810298 L128.674797,178.810298 L128.674797,171.189702 L121.054201,171.189702 L121.054201,178.810298 Z M121.054201,168.783198 L128.674797,168.783198 L128.674797,161.162602 L121.054201,161.162602 L121.054201,168.783198 Z M121.054201,158.756098 L128.674797,158.756098 L128.674797,151.135501 L121.054201,151.135501 L121.054201,158.756098 Z M121.054201,148.728997 L128.674797,148.728997 L128.674797,141.108401 L121.054201,141.108401 L121.054201,148.728997 Z M121.054201,138.701897 L128.674797,138.701897 L128.674797,131.081301 L121.054201,131.081301 L121.054201,138.701897 Z M121.054201,128.674797 L128.674797,128.674797 L128.674797,121.054201 L121.054201,121.054201 L121.054201,128.674797 Z M121.054201,118.647696 L128.674797,118.647696 L128.674797,111.0271 L121.054201,111.0271 L121.054201,118.647696 Z M131.081301,249 L138.701897,249 L138.701897,241.379404 L131.081301,241.379404 L131.081301,249 Z M131.081301,238.9729 L138.701897,238.9729 L138.701897,231.352304 L131.081301,231.352304 L131.081301,238.9729 Z M131.081301,228.945799 L138.701897,228.945799 L138.701897,221.325203 L131.081301,221.325203 L131.081301,228.945799 Z M131.081301,218.918699 L138.701897,218.918699 L138.701897,211.298103 L131.081301,211.298103 L131.081301,218.918699 Z M131.081301,208.891599 L138.701897,208.891599 L138.701897,201.271003 L131.081301,201.271003 L131.081301,208.891599 Z M131.081301,198.864499 L138.701897,198.864499 L138.701897,191.243902 L131.081301,191.243902 L131.081301,198.864499 Z M131.081301,188.837398 L138.701897,188.837398 L138.701897,181.216802 L131.081301,181.216802 L131.081301,188.837398 Z M131.081301,178.810298 L138.701897,178.810298 L138.701897,171.189702 L131.081301,171.189702 L131.081301,178.810298 Z M131.081301,168.783198 L138.701897,168.783198 L138.701897,161.162602 L131.081301,161.162602 L131.081301,168.783198 Z M131.081301,158.756098 L138.701897,158.756098 L138.701897,151.135501 L131.081301,151.135501 L131.081301,158.756098 Z M131.081301,148.728997 L138.701897,148.728997 L138.701897,141.108401 L131.081301,141.108401 L131.081301,148.728997 Z M131.081301,138.701897 L138.701897,138.701897 L138.701897,131.081301 L131.081301,131.081301 L131.081301,138.701897 Z M131.081301,128.674797 L138.701897,128.674797 L138.701897,121.054201 L131.081301,121.054201 L131.081301,128.674797 Z M131.081301,118.647696 L138.701897,118.647696 L138.701897,111.0271 L131.081301,111.0271 L131.081301,118.647696 Z M131.081301,108.620596 L138.701897,108.620596 L138.701897,101 L131.081301,101 L131.081301,108.620596 Z M141.108401,198.864499 L148.728997,198.864499 L148.728997,191.243902 L141.108401,191.243902 L141.108401,198.864499 Z M141.108401,188.837398 L148.728997,188.837398 L148.728997,181.216802 L141.108401,181.216802 L141.108401,188.837398 Z M141.108401,178.810298 L148.728997,178.810298 L148.728997,171.189702 L141.108401,171.189702 L141.108401,178.810298 Z M141.108401,138.701897 L148.728997,138.701897 L148.728997,131.081301 L141.108401,131.081301 L141.108401,138.701897 Z M141.108401,128.674797 L148.728997,128.674797 L148.728997,121.054201 L141.108401,121.054201 L141.108401,128.674797 Z M141.108401,118.647696 L148.728997,118.647696 L148.728997,111.0271 L141.108401,111.0271 L141.108401,118.647696 Z M141.108401,108.620596 L148.728997,108.620596 L148.728997,101 L141.108401,101 L141.108401,108.620596 Z M151.135501,198.864499 L158.756098,198.864499 L158.756098,191.243902 L151.135501,191.243902 L151.135501,198.864499 Z M151.135501,188.837398 L158.756098,188.837398 L158.756098,181.216802 L151.135501,181.216802 L151.135501,188.837398 Z M151.135501,178.810298 L158.756098,178.810298 L158.756098,171.189702 L151.135501,171.189702 L151.135501,178.810298 Z M151.135501,128.674797 L158.756098,128.674797 L158.756098,121.054201 L151.135501,121.054201 L151.135501,128.674797 Z M151.135501,118.647696 L158.756098,118.647696 L158.756098,111.0271 L151.135501,111.0271 L151.135501,118.647696 Z M151.135501,108.620596 L158.756098,108.620596 L158.756098,101 L151.135501,101 L151.135501,108.620596 Z M161.162602,249 L168.783198,249 L168.783198,241.379404 L161.162602,241.379404 L161.162602,249 Z M161.162602,238.9729 L168.783198,238.9729 L168.783198,231.352304 L161.162602,231.352304 L161.162602,238.9729 Z M161.162602,228.945799 L168.783198,228.945799 L168.783198,221.325203 L161.162602,221.325203 L161.162602,228.945799 Z M161.162602,218.918699 L168.783198,218.918699 L168.783198,211.298103 L161.162602,211.298103 L161.162602,218.918699 Z M161.162602,208.891599 L168.783198,208.891599 L168.783198,201.271003 L161.162602,201.271003 L161.162602,208.891599 Z M161.162602,198.864499 L168.783198,198.864499 L168.783198,191.243902 L161.162602,191.243902 L161.162602,198.864499 Z M161.162602,188.837398 L168.783198,188.837398 L168.783198,181.216802 L161.162602,181.216802 L161.162602,188.837398 Z M161.162602,178.810298 L168.783198,178.810298 L168.783198,171.189702 L161.162602,171.189702 L161.162602,178.810298 Z M161.162602,168.783198 L168.783198,168.783198 L168.783198,161.162602 L161.162602,161.162602 L161.162602,168.783198 Z M161.162602,158.756098 L168.783198,158.756098 L168.783198,151.135501 L161.162602,151.135501 L161.162602,158.756098 Z M161.162602,148.728997 L168.783198,148.728997 L168.783198,141.108401 L161.162602,141.108401 L161.162602,148.728997 Z M161.162602,138.701897 L168.783198,138.701897 L168.783198,131.081301 L161.162602,131.081301 L161.162602,138.701897 Z M161.162602,128.674797 L168.783198,128.674797 L168.783198,121.054201 L161.162602,121.054201 L161.162602,128.674797 Z M161.162602,118.647696 L168.783198,118.647696 L168.783198,111.0271 L161.162602,111.0271 L161.162602,118.647696 Z M161.162602,108.620596 L168.783198,108.620596 L168.783198,101 L161.162602,101 L161.162602,108.620596 Z M171.189702,249 L178.810298,249 L178.810298,241.379404 L171.189702,241.379404 L171.189702,249 Z M171.189702,238.9729 L178.810298,238.9729 L178.810298,231.352304 L171.189702,231.352304 L171.189702,238.9729 Z M171.189702,228.945799 L178.810298,228.945799 L178.810298,221.325203 L171.189702,221.325203 L171.189702,228.945799 Z M171.189702,218.918699 L178.810298,218.918699 L178.810298,211.298103 L171.189702,211.298103 L171.189702,218.918699 Z M171.189702,208.891599 L178.810298,208.891599 L178.810298,201.271003 L171.189702,201.271003 L171.189702,208.891599 Z M171.189702,198.864499 L178.810298,198.864499 L178.810298,191.243902 L171.189702,191.243902 L171.189702,198.864499 Z M171.189702,188.837398 L178.810298,188.837398 L178.810298,181.216802 L171.189702,181.216802 L171.189702,188.837398 Z M171.189702,178.810298 L178.810298,178.810298 L178.810298,171.189702 L171.189702,171.189702 L171.189702,178.810298 Z M171.189702,168.783198 L178.810298,168.783198 L178.810298,161.162602 L171.189702,161.162602 L171.189702,168.783198 Z M171.189702,158.756098 L178.810298,158.756098 L178.810298,151.135501 L171.189702,151.135501 L171.189702,158.756098 Z M171.189702,148.728997 L178.810298,148.728997 L178.810298,141.108401 L171.189702,141.108401 L171.189702,148.728997 Z M171.189702,138.701897 L178.810298,138.701897 L178.810298,131.081301 L171.189702,131.081301 L171.189702,138.701897 Z M171.189702,128.674797 L178.810298,128.674797 L178.810298,121.054201 L171.189702,121.054201 L171.189702,128.674797 Z M171.189702,118.647696 L178.810298,118.647696 L178.810298,111.0271 L171.189702,111.0271 L171.189702,118.647696 Z M171.189702,108.620596 L178.810298,108.620596 L178.810298,101 L171.189702,101 L171.189702,108.620596 Z M181.216802,249 L188.837398,249 L188.837398,241.379404 L181.216802,241.379404 L181.216802,249 Z M181.216802,238.9729 L188.837398,238.9729 L188.837398,231.352304 L181.216802,231.352304 L181.216802,238.9729 Z M181.216802,228.945799 L188.837398,228.945799 L188.837398,221.325203 L181.216802,221.325203 L181.216802,228.945799 Z M181.216802,218.918699 L188.837398,218.918699 L188.837398,211.298103 L181.216802,211.298103 L181.216802,218.918699 Z M181.216802,208.891599 L188.837398,208.891599 L188.837398,201.271003 L181.216802,201.271003 L181.216802,208.891599 Z M181.216802,198.864499 L188.837398,198.864499 L188.837398,191.243902 L181.216802,191.243902 L181.216802,198.864499 Z M181.216802,188.837398 L188.837398,188.837398 L188.837398,181.216802 L181.216802,181.216802 L181.216802,188.837398 Z M181.216802,178.810298 L188.837398,178.810298 L188.837398,171.189702 L181.216802,171.189702 L181.216802,178.810298 Z M181.216802,168.783198 L188.837398,168.783198 L188.837398,161.162602 L181.216802,161.162602 L181.216802,168.783198 Z M181.216802,158.756098 L188.837398,158.756098 L188.837398,151.135501 L181.216802,151.135501 L181.216802,158.756098 Z M181.216802,148.728997 L188.837398,148.728997 L188.837398,141.108401 L181.216802,141.108401 L181.216802,148.728997 Z M181.216802,138.701897 L188.837398,138.701897 L188.837398,131.081301 L181.216802,131.081301 L181.216802,138.701897 Z M181.216802,128.674797 L188.837398,128.674797 L188.837398,121.054201 L181.216802,121.054201 L181.216802,128.674797 Z M181.216802,118.647696 L188.837398,118.647696 L188.837398,111.0271 L181.216802,111.0271 L181.216802,118.647696 Z M181.216802,108.620596 L188.837398,108.620596 L188.837398,101 L181.216802,101 L181.216802,108.620596 Z M191.243902,249 L198.864499,249 L198.864499,241.379404 L191.243902,241.379404 L191.243902,249 Z M191.243902,238.9729 L198.864499,238.9729 L198.864499,231.352304 L191.243902,231.352304 L191.243902,238.9729 Z M191.243902,228.945799 L198.864499,228.945799 L198.864499,221.325203 L191.243902,221.325203 L191.243902,228.945799 Z M191.243902,218.918699 L198.864499,218.918699 L198.864499,211.298103 L191.243902,211.298103 L191.243902,218.918699 Z M191.243902,208.891599 L198.864499,208.891599 L198.864499,201.271003 L191.243902,201.271003 L191.243902,208.891599 Z M191.243902,198.864499 L198.864499,198.864499 L198.864499,191.243902 L191.243902,191.243902 L191.243902,198.864499 Z M191.243902,188.837398 L198.864499,188.837398 L198.864499,181.216802 L191.243902,181.216802 L191.243902,188.837398 Z M191.243902,178.810298 L198.864499,178.810298 L198.864499,171.189702 L191.243902,171.189702 L191.243902,178.810298 Z M191.243902,168.783198 L198.864499,168.783198 L198.864499,161.162602 L191.243902,161.162602 L191.243902,168.783198 Z M191.243902,158.756098 L198.864499,158.756098 L198.864499,151.135501 L191.243902,151.135501 L191.243902,158.756098 Z M191.243902,148.728997 L198.864499,148.728997 L198.864499,141.108401 L191.243902,141.108401 L191.243902,148.728997 Z M191.243902,138.701897 L198.864499,138.701897 L198.864499,131.081301 L191.243902,131.081301 L191.243902,138.701897 Z M191.243902,128.674797 L198.864499,128.674797 L198.864499,121.054201 L191.243902,121.054201 L191.243902,128.674797 Z M191.243902,118.647696 L198.864499,118.647696 L198.864499,111.0271 L191.243902,111.0271 L191.243902,118.647696 Z M191.243902,108.620596 L198.864499,108.620596 L198.864499,101 L191.243902,101 L191.243902,108.620596 Z M211.298103,249 L218.918699,249 L218.918699,241.379404 L211.298103,241.379404 L211.298103,249 Z M211.298103,238.9729 L218.918699,238.9729 L218.918699,231.352304 L211.298103,231.352304 L211.298103,238.9729 Z M211.298103,228.945799 L218.918699,228.945799 L218.918699,221.325203 L211.298103,221.325203 L211.298103,228.945799 Z M211.298103,218.918699 L218.918699,218.918699 L218.918699,211.298103 L211.298103,211.298103 L211.298103,218.918699 Z M211.298103,208.891599 L218.918699,208.891599 L218.918699,201.271003 L211.298103,201.271003 L211.298103,208.891599 Z M211.298103,198.864499 L218.918699,198.864499 L218.918699,191.243902 L211.298103,191.243902 L211.298103,198.864499 Z M211.298103,188.837398 L218.918699,188.837398 L218.918699,181.216802 L211.298103,181.216802 L211.298103,188.837398 Z M211.298103,178.810298 L218.918699,178.810298 L218.918699,171.189702 L211.298103,171.189702 L211.298103,178.810298 Z M211.298103,168.783198 L218.918699,168.783198 L218.918699,161.162602 L211.298103,161.162602 L211.298103,168.783198 Z M211.298103,158.756098 L218.918699,158.756098 L218.918699,151.135501 L211.298103,151.135501 L211.298103,158.756098 Z M211.298103,148.728997 L218.918699,148.728997 L218.918699,141.108401 L211.298103,141.108401 L211.298103,148.728997 Z M211.298103,138.701897 L218.918699,138.701897 L218.918699,131.081301 L211.298103,131.081301 L211.298103,138.701897 Z M211.298103,128.674797 L218.918699,128.674797 L218.918699,121.054201 L211.298103,121.054201 L211.298103,128.674797 Z M211.298103,118.647696 L218.918699,118.647696 L218.918699,111.0271 L211.298103,111.0271 L211.298103,118.647696 Z M211.298103,108.620596 L218.918699,108.620596 L218.918699,101 L211.298103,101 L211.298103,108.620596 Z M221.325203,249 L228.945799,249 L228.945799,241.379404 L221.325203,241.379404 L221.325203,249 Z M221.325203,238.9729 L228.945799,238.9729 L228.945799,231.352304 L221.325203,231.352304 L221.325203,238.9729 Z M221.325203,228.945799 L228.945799,228.945799 L228.945799,221.325203 L221.325203,221.325203 L221.325203,228.945799 Z M221.325203,218.918699 L228.945799,218.918699 L228.945799,211.298103 L221.325203,211.298103 L221.325203,218.918699 Z M221.325203,208.891599 L228.945799,208.891599 L228.945799,201.271003 L221.325203,201.271003 L221.325203,208.891599 Z M221.325203,198.864499 L228.945799,198.864499 L228.945799,191.243902 L221.325203,191.243902 L221.325203,198.864499 Z M221.325203,188.837398 L228.945799,188.837398 L228.945799,181.216802 L221.325203,181.216802 L221.325203,188.837398 Z M221.325203,178.810298 L228.945799,178.810298 L228.945799,171.189702 L221.325203,171.189702 L221.325203,178.810298 Z M221.325203,168.783198 L228.945799,168.783198 L228.945799,161.162602 L221.325203,161.162602 L221.325203,168.783198 Z M221.325203,158.756098 L228.945799,158.756098 L228.945799,151.135501 L221.325203,151.135501 L221.325203,158.756098 Z M221.325203,148.728997 L228.945799,148.728997 L228.945799,141.108401 L221.325203,141.108401 L221.325203,148.728997 Z M221.325203,138.701897 L228.945799,138.701897 L228.945799,131.081301 L221.325203,131.081301 L221.325203,138.701897 Z M221.325203,128.674797 L228.945799,128.674797 L228.945799,121.054201 L221.325203,121.054201 L221.325203,128.674797 Z M221.325203,118.647696 L228.945799,118.647696 L228.945799,111.0271 L221.325203,111.0271 L221.325203,118.647696 Z M221.325203,108.620596 L228.945799,108.620596 L228.945799,101 L221.325203,101 L221.325203,108.620596 Z M231.352304,249 L238.9729,249 L238.9729,241.379404 L231.352304,241.379404 L231.352304,249 Z M231.352304,238.9729 L238.9729,238.9729 L238.9729,231.352304 L231.352304,231.352304 L231.352304,238.9729 Z M231.352304,228.945799 L238.9729,228.945799 L238.9729,221.325203 L231.352304,221.325203 L231.352304,228.945799 Z M231.352304,218.918699 L238.9729,218.918699 L238.9729,211.298103 L231.352304,211.298103 L231.352304,218.918699 Z M231.352304,208.891599 L238.9729,208.891599 L238.9729,201.271003 L231.352304,201.271003 L231.352304,208.891599 Z M231.352304,198.864499 L238.9729,198.864499 L238.9729,191.243902 L231.352304,191.243902 L231.352304,198.864499 Z M231.352304,188.837398 L238.9729,188.837398 L238.9729,181.216802 L231.352304,181.216802 L231.352304,188.837398 Z M231.352304,178.810298 L238.9729,178.810298 L238.9729,171.189702 L231.352304,171.189702 L231.352304,178.810298 Z M231.352304,168.783198 L238.9729,168.783198 L238.9729,161.162602 L231.352304,161.162602 L231.352304,168.783198 Z M231.352304,158.756098 L238.9729,158.756098 L238.9729,151.135501 L231.352304,151.135501 L231.352304,158.756098 Z M231.352304,148.728997 L238.9729,148.728997 L238.9729,141.108401 L231.352304,141.108401 L231.352304,148.728997 Z M231.352304,138.701897 L238.9729,138.701897 L238.9729,131.081301 L231.352304,131.081301 L231.352304,138.701897 Z M231.352304,128.674797 L238.9729,128.674797 L238.9729,121.054201 L231.352304,121.054201 L231.352304,128.674797 Z M231.352304,118.647696 L238.9729,118.647696 L238.9729,111.0271 L231.352304,111.0271 L231.352304,118.647696 Z M231.352304,108.620596 L238.9729,108.620596 L238.9729,101 L231.352304,101 L231.352304,108.620596 Z M241.379404,249 L249,249 L249,241.379404 L241.379404,241.379404 L241.379404,249 Z M241.379404,238.9729 L249,238.9729 L249,231.352304 L241.379404,231.352304 L241.379404,238.9729 Z M241.379404,228.945799 L249,228.945799 L249,221.325203 L241.379404,221.325203 L241.379404,228.945799 Z M241.379404,218.918699 L249,218.918699 L249,211.298103 L241.379404,211.298103 L241.379404,218.918699 Z M241.379404,208.891599 L249,208.891599 L249,201.271003 L241.379404,201.271003 L241.379404,208.891599 Z M241.379404,198.864499 L249,198.864499 L249,191.243902 L241.379404,191.243902 L241.379404,198.864499 Z M241.379404,188.837398 L249,188.837398 L249,181.216802 L241.379404,181.216802 L241.379404,188.837398 Z M241.379404,178.810298 L249,178.810298 L249,171.189702 L241.379404,171.189702 L241.379404,178.810298 Z M241.379404,168.783198 L249,168.783198 L249,161.162602 L241.379404,161.162602 L241.379404,168.783198 Z M241.379404,158.756098 L249,158.756098 L249,151.135501 L241.379404,151.135501 L241.379404,158.756098 Z M241.379404,148.728997 L249,148.728997 L249,141.108401 L241.379404,141.108401 L241.379404,148.728997 Z M241.379404,138.701897 L249,138.701897 L249,131.081301 L241.379404,131.081301 L241.379404,138.701897 Z M241.379404,128.674797 L249,128.674797 L249,121.054201 L241.379404,121.054201 L241.379404,128.674797 Z M241.379404,118.647696 L249,118.647696 L249,111.0271 L241.379404,111.0271 L241.379404,118.647696 Z M241.379404,108.620596 L241.379404,101 L249,101 L249,108.620596 L241.379404,108.620596 Z" id="AI" fill="#6CD4A1" fill-rule="nonzero"></path>
    </g>
</svg>